<svg width="22" height="23" viewBox="0 0 22 23" fill="none" xmlns="http://www.w3.org/2000/svg">
<g id="android-globe">
<path id="Shape" fill-rule="evenodd" clip-rule="evenodd" d="M11.096 0.825806C5.20082 0.825806 0.421875 5.60481 0.421875 11.5C0.421875 17.3951 5.20082 22.1741 11.096 22.1741C16.9912 22.1741 21.7702 17.3951 21.7702 11.5C21.7702 5.60481 16.9912 0.825806 11.096 0.825806ZM9.99017 20.5833C7.96495 20.3407 6.09112 19.4341 4.62645 17.9695C2.89836 16.2414 1.94672 13.9439 1.94672 11.5C1.94672 9.29999 2.71834 7.21883 4.13292 5.56459C4.16936 6.00167 4.25932 6.47025 4.23627 6.80521C4.15211 8.02632 4.03162 8.79055 4.74638 9.82076C5.02483 10.222 5.09324 10.7972 5.22877 11.2617C5.36132 11.716 5.89087 11.9544 6.2561 12.2343C6.99298 12.7993 7.69794 13.4559 8.47931 13.9532C8.995 14.2813 9.31713 14.4446 9.1661 15.0739C9.04463 15.58 9.01071 15.8917 8.74888 16.3426C8.66898 16.4802 9.05048 17.3648 9.17744 17.4917C9.56222 17.8765 9.94403 18.2294 10.3635 18.5758C11.0137 19.1131 10.3003 19.8112 9.99017 20.5833ZM17.5656 17.9696C16.2501 19.285 14.6046 20.1499 12.8158 20.4883C13.0693 19.8614 13.5207 19.3044 13.9394 18.9815C14.3036 18.7005 14.7597 18.1599 14.95 17.7318C15.1401 17.3042 15.3919 16.9335 15.6467 16.5403C16.0093 15.981 14.7528 15.1375 14.3457 14.9607C13.4294 14.563 12.7397 14.0262 11.9254 13.4533C11.3453 13.0451 10.1674 13.6664 9.51246 13.3805C8.61537 12.9888 7.87629 12.3082 7.09651 11.721C6.29184 11.1149 6.33074 10.4084 6.33074 9.51443C6.96103 9.53768 7.85766 9.34 8.27611 9.84687C8.40815 10.0068 8.86216 10.7214 9.16607 10.4675C9.41434 10.26 8.98209 9.42837 8.8986 9.23285C8.64175 8.63166 9.48383 8.39718 9.91485 7.98951C10.4773 7.45765 11.6838 6.62353 11.5884 6.24229C11.4931 5.86104 10.3812 4.7809 9.72821 4.94943C9.63034 4.97468 8.76871 5.87813 8.60223 6.01987C8.60665 5.725 8.61106 5.43018 8.61558 5.1353C8.6184 4.94912 8.26826 4.75801 8.28452 4.63793C8.32558 4.33443 9.17038 3.78363 9.38053 3.54193C9.23329 3.44991 8.73089 3.01838 8.57883 3.0817C8.21068 3.23515 7.7949 3.34086 7.42674 3.49425C7.42674 3.36657 7.41124 3.24664 7.39277 3.1282C8.13052 2.80156 8.91112 2.57443 9.71799 2.45326L10.4408 2.74372L10.9511 3.34933L11.4603 3.87447L11.9055 4.0179L12.6126 3.35102L12.4303 2.87494V2.447C13.8287 2.65012 15.1494 3.17182 16.306 3.97628C16.099 3.99481 15.8717 4.02524 15.6151 4.05788C15.5091 3.99527 15.3732 3.96684 15.2577 3.92327C15.5928 4.64388 15.9424 5.35453 16.2976 6.0656C16.677 6.82516 17.5186 7.63988 17.6664 8.44168C17.8406 9.38675 17.7197 10.2452 17.815 11.3571C17.9068 12.4279 19.0222 13.6445 19.0222 13.6445C19.0222 13.6445 19.5373 13.8199 19.9657 13.7588C19.5664 15.3385 18.7477 16.7873 17.5656 17.9696Z" fill="white"/>
</g>
</svg>
