<svg width="1000" height="279" viewBox="0 0 1000 279" fill="none" xmlns="http://www.w3.org/2000/svg">
<path d="M179.628 155.267C176.907 156.93 173.733 157.233 171.314 155.872C168.291 154.058 166.477 149.977 166.477 144.384V127.302C166.477 119.14 163.302 113.244 157.86 111.733C148.64 109.012 141.686 120.349 139.116 124.581L122.791 150.733V118.535C122.64 111.128 120.221 106.744 115.686 105.384C112.663 104.477 108.128 104.93 103.744 111.581L67.3139 169.93C62.4767 160.709 59.907 150.43 59.907 140C59.907 104.779 88.1744 76.2093 122.791 76.2093C157.407 76.2093 185.674 104.779 185.674 140V140.151V140.302C185.977 147.105 183.86 152.547 179.628 155.267ZM199.581 140V139.849V139.698C199.43 96.9186 164.965 62 122.791 62C80.4651 62 46 96.9186 46 140C46 182.93 80.4651 218 122.791 218C142.291 218 160.733 210.593 174.942 197.14C177.814 194.419 177.965 190.035 175.244 187.163C172.674 184.291 168.291 184.14 165.419 186.709C165.419 186.709 165.419 186.709 165.267 186.86C153.779 197.744 138.36 203.942 122.488 203.942C103.895 203.942 87.2674 195.779 75.7791 182.779L108.581 130.174V154.512C108.581 166.151 113.116 169.93 116.895 170.988C120.674 172.047 126.419 171.291 132.616 161.465L150.605 132.291C151.209 131.384 151.663 130.477 152.267 129.872V144.686C152.267 155.57 156.651 164.337 164.209 168.57C171.012 172.5 179.628 172.046 186.733 167.663C195.5 161.919 200.186 151.942 199.581 140ZM306.605 113.395C308.419 114.453 310.081 117.023 310.081 119.291C310.081 122.919 307.058 125.942 303.581 125.942C302.674 125.942 301.919 125.64 301.163 125.488C297.081 122.465 291.942 120.5 286.5 120.5C273.651 120.5 264.884 130.93 264.884 143.93C264.884 156.93 273.802 167.209 286.5 167.209C292.849 167.209 298.593 164.64 302.826 160.558C303.884 159.802 305.244 159.349 306.605 159.349C310.081 159.349 312.802 162.07 312.802 165.546C312.802 167.814 311.442 169.779 309.779 170.837C303.581 176.128 295.267 179.605 286.651 179.605C267 179.605 250.977 163.43 250.977 143.477C250.977 123.523 267 107.349 286.651 107.349C293.907 107.198 300.86 109.465 306.605 113.395ZM342.581 128.512C356.035 128.512 367.221 139.849 367.221 153.907C367.221 167.814 355.884 179.756 342.581 179.756C328.523 179.756 316.884 167.965 316.884 153.907C316.884 139.849 328.523 128.512 342.581 128.512ZM342.43 167.209C348.326 167.209 353.314 161.616 353.314 154.058C353.314 146.5 348.326 141.663 342.43 141.663C336.081 141.663 330.791 146.349 330.791 154.058C330.791 161.465 336.081 167.209 342.43 167.209ZM375.686 171.895V136.221C375.686 132.291 378.709 129.116 382.639 129.116C386.419 129.116 389.593 132.291 389.593 136.221V171.895C389.593 175.826 386.419 179 382.639 179C378.86 179 375.686 175.674 375.686 171.895ZM374.628 115.663C374.628 110.977 378.256 107.349 382.639 107.349C387.174 107.349 390.802 111.128 390.802 115.663C390.802 120.198 387.174 123.826 382.639 123.826C378.105 123.674 374.628 120.047 374.628 115.663ZM416.198 152.546V171.895C416.198 175.826 413.023 179 409.244 179C405.465 179 402.291 175.826 402.291 171.895V134.558C402.291 131.535 404.709 129.116 407.733 129.116C410.756 129.116 413.023 131.686 413.023 134.558C418.616 129.267 423.605 128.512 428.291 128.512C442.198 128.512 448.395 138.942 448.395 150.884V171.895C448.395 175.826 445.221 179 441.442 179C437.663 179 434.488 175.826 434.488 171.895V152.546C434.488 146.5 433.732 141.36 424.965 141.36C418.767 141.36 416.198 146.5 416.198 152.546ZM493.442 159.954C491.779 159.954 490.721 159.198 489.814 158.14L473.639 140.605V171.895C473.639 175.826 470.465 179 466.686 179C462.907 179 459.732 175.826 459.732 171.895V109.919C460.186 108.86 461.244 108.105 462.302 108.105C463.512 108.105 464.57 109.163 465.326 109.919L491.174 138.942C491.93 139.849 492.837 140.302 493.442 140.302C493.895 140.302 494.953 139.849 495.709 138.942L521.558 109.919C522.314 109.163 523.221 108.105 524.581 108.105C525.791 108.105 526.849 108.86 527.151 109.919V171.895C527.151 175.826 524.128 179 520.198 179C516.419 179 513.244 175.826 513.244 171.895V140.605L497.07 158.14C495.86 159.198 494.802 159.954 493.442 159.954ZM560.256 167.209C566.453 167.209 571.744 161.616 571.744 154.058C571.744 146.5 566.302 141.512 560.256 141.512C554.209 141.512 549.221 146.651 549.221 154.058C549.221 161.314 554.058 167.209 560.256 167.209ZM575.07 173.558L574.767 171.895C572.046 177.186 563.43 179.605 557.988 179.605C544.988 179.605 535.314 167.814 535.314 153.756C535.314 139.849 545.139 128.36 558.744 128.36C561.012 128.36 568.872 128.965 574.919 136.07L575.221 134.407C575.221 131.384 577.488 128.965 580.512 128.965C583.535 128.965 585.953 131.535 585.953 134.407V173.407C585.953 176.43 583.535 178.849 580.512 178.849C577.337 179 575.07 176.43 575.07 173.558ZM624.198 141.36H622.686C613.919 141.814 612.256 146.802 612.256 152.546V171.895C612.256 175.826 609.081 179 605.302 179C601.523 179 598.349 175.826 598.349 171.895V134.558C598.349 131.535 600.767 129.116 603.791 129.116C606.814 129.116 609.081 131.686 609.081 134.558C614.221 129.721 618.453 128.663 622.686 128.512H624.046C627.372 128.512 630.395 131.384 630.395 135.012C630.546 138.337 627.523 141.36 624.198 141.36ZM677.86 168.57C678.465 169.628 678.918 170.686 678.918 171.895C678.918 175.523 675.593 178.849 671.965 178.849C669.546 178.849 667.43 177.035 665.767 174.919L649.744 156.326V171.744C649.744 175.674 646.57 178.849 642.791 178.849C639.012 178.849 635.837 175.674 635.837 171.744V115.058C635.837 111.128 638.86 107.953 642.791 107.953C646.721 107.953 649.744 111.128 649.744 115.058V150.43L665.767 132.744C667.43 130.93 669.395 128.965 671.814 128.965C675.291 128.965 678.465 132.14 678.465 135.767C678.465 136.826 678.163 138.035 677.558 138.942L664.86 152.849L677.86 168.57ZM705.07 141.512C701.291 141.512 695.093 143.477 695.093 149.372H715.198C715.046 143.477 708.698 141.512 705.07 141.512ZM723.209 158.291H695.093C695.093 166.605 703.105 167.965 706.581 167.965C709.151 167.965 712.779 167.512 715.651 166.151C716.558 165.546 717.918 165.093 719.279 165.093C722.302 165.093 724.872 167.663 724.872 170.837C724.872 172.953 723.511 174.767 721.849 175.826C717.616 179 712.023 179.756 706.732 179.756C692.674 179.756 681.035 172.198 681.035 154.512C681.035 140.605 688.139 128.512 704.767 128.512C718.221 128.512 728.349 137.279 728.651 152.849C728.651 155.721 726.232 158.291 723.209 158.291ZM761.907 179.605H758.128C747.546 179.605 741.349 174.919 741.349 158.442V141.36H737.721C734.395 141.36 731.523 138.337 731.523 135.012C731.523 131.384 734.546 128.512 737.721 128.512H741.349V115.36C741.349 111.43 744.372 108.256 748.302 108.256C752.081 108.256 755.256 111.43 755.256 115.36V128.512H761C764.325 128.512 767.198 131.384 767.198 135.012C767.198 138.337 764.174 141.36 761 141.36H755.256V155.721C755.256 165.244 755.709 167.209 759.942 167.209H761.907C765.232 167.209 768.105 169.93 768.105 173.407C768.105 176.733 765.232 179.605 761.907 179.605ZM829.174 113.395C830.988 114.453 832.651 117.023 832.651 119.291C832.651 122.919 829.628 125.942 826.151 125.942C825.244 125.942 824.488 125.64 823.732 125.488C819.651 122.465 814.511 120.5 809.07 120.5C796.221 120.5 787.453 130.93 787.453 143.93C787.453 156.93 796.372 167.209 809.07 167.209C815.418 167.209 821.163 164.64 825.395 160.558C826.453 159.802 827.814 159.349 829.174 159.349C832.651 159.349 835.372 162.07 835.372 165.546C835.372 167.814 834.012 169.779 832.349 170.837C826.151 176.128 817.837 179.605 809.221 179.605C789.57 179.605 773.546 163.43 773.546 143.477C773.546 123.523 789.57 107.349 809.221 107.349C816.477 107.198 823.581 109.465 829.174 113.395ZM864.395 167.209C870.593 167.209 875.884 161.616 875.884 154.058C875.884 146.5 870.442 141.512 864.395 141.512C858.197 141.512 853.36 146.651 853.36 154.058C853.36 161.314 858.349 167.209 864.395 167.209ZM879.209 173.558L878.907 171.895C876.186 177.186 867.57 179.605 862.128 179.605C849.128 179.605 839.453 167.814 839.453 153.756C839.453 139.849 849.279 128.36 862.884 128.36C865.151 128.36 873.011 128.965 879.058 136.07L879.36 134.407C879.36 131.384 881.628 128.965 884.651 128.965C887.674 128.965 890.093 131.535 890.093 134.407V173.407C890.093 176.43 887.674 178.849 884.651 178.849C881.477 179 879.209 176.43 879.209 173.558ZM928.035 167.209C934.232 167.209 939.07 161.314 939.07 154.058C939.07 146.5 934.081 141.512 928.035 141.512C921.837 141.512 916.546 146.5 916.546 154.058C916.546 161.616 921.837 167.209 928.035 167.209ZM916.546 175.523V193.209C916.546 197.14 913.372 200.314 909.593 200.314C905.814 200.314 902.639 197.14 902.639 193.209V134.558C902.639 131.535 905.058 129.116 908.081 129.116C911.104 129.116 913.372 131.686 913.372 135.163C918.511 129.872 924.86 128.512 929.698 128.512C943.151 128.512 953.128 139.849 953.128 153.907C953.128 167.814 943.604 179.756 930.453 179.756C926.372 179.605 920.325 178.395 916.546 175.523Z" fill="white"/>
</svg>
