<svg width="1000" height="279" viewBox="0 0 1000 279" fill="none" xmlns="http://www.w3.org/2000/svg">
<path d="M353.892 186.365C351.404 191.303 348.754 193.791 345.941 193.829C330.339 194.029 297.567 194.054 247.624 193.904C234.253 194.822 222.552 184.152 224.146 170.726C224.521 167.613 226.415 163.069 229.828 157.093C240.216 138.979 250.643 120.883 261.106 102.806C265.232 95.6924 268.538 91.1544 271.026 89.1917C280.59 81.6721 294.841 84.5599 301.367 95.5299C319.207 125.533 336.715 155.812 353.892 186.365Z" fill="white"/>
<path d="M398.11 184.476C395.359 188.364 391.734 191.208 387.233 193.008C376.295 195.746 367.756 192.24 361.618 182.489C349.779 161.811 337.828 141.134 325.764 120.457C321.282 112.768 319.369 105.717 323.045 97.2789C328.07 85.8026 343.935 81.3396 354.136 88.8029C356.736 90.7031 359.718 94.5473 363.081 100.335C374.707 120.35 386.289 140.396 397.828 160.474C402.591 168.774 402.685 176.775 398.11 184.476Z" fill="white"/>
<path d="M712.902 170.961C698.181 153.352 699.006 119.617 723.084 109.36C741.361 101.584 758.682 103.99 775.046 116.579C775.346 116.808 775.594 117.099 775.772 117.431C775.951 117.764 776.056 118.131 776.081 118.507C776.106 118.884 776.05 119.262 775.917 119.615C775.783 119.968 775.576 120.288 775.309 120.555C772.658 123.23 769.596 125.062 766.12 126.049C765.799 126.138 765.465 126.163 765.136 126.121C764.808 126.079 764.492 125.972 764.207 125.805C756.557 121.286 746.299 116.504 737.204 119.355C722.14 124.055 716.227 134.85 719.465 151.74C723.009 170.248 742.418 175.799 757.682 167.791C765.258 163.816 770.621 162.728 775.703 170.436C776.04 170.936 776.009 171.411 775.609 171.861C759.107 190.125 727.847 188.888 712.902 170.961Z" fill="white"/>
<path d="M443.527 105.379C448.122 105.191 456.879 104.666 459.579 109.373C468.48 124.825 477.181 140.42 485.682 156.16C485.726 156.238 485.79 156.303 485.868 156.348C485.945 156.393 486.033 156.417 486.123 156.417C486.212 156.417 486.3 156.393 486.378 156.348C486.455 156.303 486.519 156.238 486.563 156.16C494.239 142.158 501.921 128.125 509.61 114.061C514.016 105.979 519.698 103.541 528.549 105.735C529.087 105.86 529.356 106.198 529.356 106.748V182.938C529.356 183.713 528.962 184.1 528.174 184.1H514.317C513.666 184.1 513.341 183.775 513.341 183.125L513.454 140.577C513.45 140.435 513.4 140.298 513.312 140.187C513.223 140.076 513.101 139.996 512.964 139.961C512.827 139.925 512.681 139.934 512.55 139.988C512.419 140.041 512.308 140.136 512.235 140.258L492.433 174.706C492.267 174.997 492.027 175.239 491.737 175.407C491.447 175.575 491.118 175.663 490.783 175.662H481.388C480.7 175.662 480.181 175.362 479.831 174.762L460.367 140.577C460.289 140.44 460.167 140.333 460.022 140.272C459.877 140.212 459.716 140.201 459.564 140.242C459.412 140.282 459.277 140.372 459.182 140.497C459.086 140.622 459.035 140.776 459.035 140.933V183.163C459.035 183.788 458.723 184.1 458.098 184.1H444.09C443.365 184.1 443.002 183.738 443.002 183.013L442.983 109.448C442.471 107.61 442.652 106.254 443.527 105.379Z" fill="white"/>
<path d="M600.932 139.052L600.52 149.816C600.495 150.579 600.101 150.96 599.339 150.96L588.931 150.885L560.222 151.354C559.672 151.366 559.397 151.647 559.397 152.197L559.284 171.081C559.272 171.606 559.534 171.868 560.072 171.868L570.704 171.831L603.239 172.225C603.553 172.23 603.861 172.3 604.145 172.429C604.429 172.558 604.682 172.744 604.889 172.975C607.427 175.775 608.471 179.151 608.021 183.101C607.946 183.764 607.577 184.089 606.914 184.076L588.275 184.057L543.832 184.001C543.598 184.001 543.374 183.91 543.209 183.748C543.044 183.587 542.951 183.367 542.951 183.138V106.742C542.951 106.117 543.263 105.805 543.889 105.805H607.215C607.965 105.805 608.277 106.173 608.152 106.911C606.877 114.262 607.833 117.656 598.382 117.806C585.718 118.019 573.042 118.069 560.353 117.956C559.69 117.956 559.359 118.287 559.359 118.95V137.196C559.359 138.458 559.984 139.09 561.234 139.09L600.932 139.052Z" fill="white"/>
<path d="M636.637 105.289C645.063 113.152 652.645 121.941 659.383 131.655C659.478 131.79 659.604 131.901 659.749 131.98C659.895 132.059 660.057 132.103 660.222 132.108C660.388 132.114 660.552 132.081 660.703 132.012C660.853 131.943 660.985 131.84 661.089 131.711L681.098 106.92C681.305 106.673 681.56 106.471 681.848 106.329C682.135 106.187 682.448 106.107 682.767 106.095L699.813 105.664C700.95 105.639 701.169 106.07 700.469 106.958L671.216 144.293C670.741 144.894 670.741 145.494 671.216 146.094L700.919 183.598C701.344 184.123 701.213 184.379 700.525 184.367L684.905 183.935C683.894 183.912 682.902 183.668 681.998 183.22C681.094 182.773 680.301 182.134 679.673 181.348L661.146 158.32C661.063 158.218 660.959 158.136 660.84 158.08C660.722 158.023 660.592 157.994 660.461 157.994C660.33 157.994 660.2 158.023 660.082 158.08C659.964 158.136 659.859 158.218 659.777 158.32L641.493 181.179C640.767 182.086 639.846 182.818 638.798 183.321C637.749 183.825 636.601 184.086 635.436 184.085H621.335C620.135 184.085 619.91 183.617 620.66 182.679L650.026 145.831C650.413 145.344 650.413 144.856 650.026 144.368L625.404 113.521L620.641 107.127C620.041 106.327 620.241 105.908 621.241 105.87L636.637 105.289Z" fill="white"/>
</svg>
