<svg width="151" height="42" viewBox="0 0 151 42" fill="none" xmlns="http://www.w3.org/2000/svg">
<g id="Social media">
<g id="telegram">
<path id="Vector" d="M117.448 19.9961C117.506 19.9671 117.564 19.9396 117.621 19.9135C118.604 19.458 119.6 19.0315 120.595 18.6051C120.649 18.6051 120.738 18.5427 120.789 18.5224C120.866 18.489 120.943 18.4571 121.02 18.4237C121.168 18.3599 121.316 18.2975 121.462 18.2337C121.758 18.1075 122.052 17.9813 122.348 17.8551L124.119 17.0965C125.299 16.5917 126.481 16.0854 127.661 15.5806C128.842 15.0758 130.024 14.5696 131.204 14.0648C132.384 13.56 133.566 13.0537 134.747 12.5489C135.927 12.0441 137.109 11.5379 138.289 11.0331C138.552 10.92 138.836 10.7517 139.117 10.7024C139.354 10.6603 139.584 10.5791 139.822 10.5341C140.273 10.4485 140.771 10.4137 141.203 10.6008C141.352 10.6661 141.49 10.7575 141.604 10.8721C142.153 11.4146 142.076 12.3052 141.96 13.0682C141.152 18.386 140.344 23.7053 139.535 29.023C139.425 29.7527 139.274 30.5534 138.698 31.0147C138.211 31.4049 137.518 31.4484 136.916 31.283C136.314 31.1162 135.784 30.7666 135.263 30.4228C133.104 28.9926 130.943 27.5623 128.784 26.132C128.27 25.7926 127.699 25.3487 127.705 24.7323C127.708 24.3609 127.93 24.0302 128.156 23.7357C130.032 21.2872 132.74 19.6045 134.754 17.2691C135.038 16.9398 135.262 16.3451 134.871 16.155C134.639 16.0419 134.373 16.1957 134.161 16.3422C131.498 18.1916 128.837 20.0426 126.175 21.892C125.306 22.4955 124.396 23.1163 123.349 23.2643C122.412 23.3977 121.469 23.1366 120.563 22.8697C119.803 22.6463 119.045 22.4171 118.289 22.1807C117.887 22.056 117.473 21.9211 117.162 21.6382C116.852 21.3553 116.674 20.8795 116.861 20.5024C116.978 20.266 117.206 20.1165 117.445 19.9947L117.448 19.9961Z" fill="#FEFFFC"/>
</g>
<g id="Instagram">
<g id="Group">
<path id="Vector_2" d="M27.1002 8.42383H14.2926C10.7543 8.42383 7.87573 11.3032 7.87573 14.8426V26.5632C7.87573 30.1026 10.7543 32.9819 14.2926 32.9819H27.1002C30.6386 32.9819 33.5171 30.1026 33.5171 26.5632V14.8426C33.5171 11.3032 30.6386 8.42383 27.1002 8.42383ZM10.1394 14.8426C10.1394 12.5521 12.0028 10.6882 14.2926 10.6882H27.1002C29.39 10.6882 31.2534 12.5521 31.2534 14.8426V26.5632C31.2534 28.8536 29.39 30.7176 27.1002 30.7176H14.2926C12.0028 30.7176 10.1394 28.8536 10.1394 26.5632V14.8426Z" fill="white"/>
<path id="Vector_3" d="M20.6963 26.6715C23.9867 26.6715 26.6651 23.9938 26.6651 20.701C26.6651 17.4082 23.9881 14.7305 20.6963 14.7305C17.4045 14.7305 14.7275 17.4082 14.7275 20.701C14.7275 23.9938 17.4045 26.6715 20.6963 26.6715ZM20.6963 16.9963C22.7396 16.9963 24.4014 18.6586 24.4014 20.7025C24.4014 22.7463 22.7396 24.4087 20.6963 24.4087C18.6531 24.4087 16.9912 22.7463 16.9912 20.7025C16.9912 18.6586 18.6531 16.9963 20.6963 16.9963Z" fill="white"/>
<path id="Vector_4" d="M27.2176 15.6959C28.1036 15.6959 28.8258 14.9749 28.8258 14.0872C28.8258 13.1995 28.1051 12.4785 27.2176 12.4785C26.3301 12.4785 25.6094 13.1995 25.6094 14.0872C25.6094 14.9749 26.3301 15.6959 27.2176 15.6959Z" fill="white"/>
</g>
</g>
<g id="twitter">
<g id="layer1">
<path id="path1009" d="M63.1969 9.13184L72.7417 21.8968L63.1375 32.2756H65.2996L73.709 23.1893L80.5029 32.2756H87.8594L77.7781 18.7926L86.7182 9.13184H84.556L76.8123 17.5002L70.5549 9.13184H63.1983H63.1969ZM66.3756 10.7246H69.7544L84.6778 30.6829H81.299L66.3756 10.7246Z" fill="white"/>
</g>
</g>
</g>
</svg>
